<?xml version="1.0" encoding="UTF-8"?>
<svg xmlns="http://www.w3.org/2000/svg" xmlns:xlink="http://www.w3.org/1999/xlink" width="188px" height="84px" viewBox="0 0 334 84" version="1.1">
<g id="surface1">
<path style=" stroke:none;fill-rule:nonzero;fill:rgb(90.196078%,33.333333%,17.647059%);fill-opacity:1;" d="M 123.898438 38.6875 C 123.027344 39.386719 121.984375 39.910156 120.589844 39.910156 L 114.667969 39.910156 C 114.496094 39.910156 114.320312 39.734375 114.320312 39.558594 L 114.320312 31.890625 C 114.320312 31.71875 114.496094 31.542969 114.667969 31.542969 L 120.589844 31.542969 C 121.984375 31.542969 123.027344 31.890625 123.898438 32.761719 C 124.769531 33.460938 125.117188 34.507812 125.117188 35.726562 C 125.292969 36.945312 124.769531 37.992188 123.898438 38.6875 M 130.863281 41.304688 C 131.910156 39.734375 132.433594 37.816406 132.433594 35.550781 C 132.433594 33.984375 132.085938 32.589844 131.5625 31.371094 C 131.039062 30.148438 130.167969 28.929688 129.296875 28.058594 C 128.253906 27.1875 127.035156 26.488281 125.640625 25.96875 C 124.246094 25.445312 122.679688 25.269531 120.9375 25.269531 L 107.53125 25.269531 C 107.183594 25.269531 107.007812 25.445312 107.007812 25.792969 L 107.007812 58.382812 C 107.007812 58.730469 107.183594 58.90625 107.53125 58.90625 L 113.800781 58.90625 C 114.148438 58.90625 114.320312 58.730469 114.320312 58.382812 L 114.320312 46.355469 C 114.320312 46.183594 114.496094 46.007812 114.667969 46.007812 L 119.199219 46.007812 L 124.945312 58.382812 C 125.117188 58.730469 125.292969 58.90625 125.640625 58.90625 L 132.605469 58.90625 C 132.78125 58.90625 132.953125 58.90625 132.953125 58.730469 L 132.953125 58.382812 L 126.335938 45.136719 C 128.425781 44.089844 129.820312 42.871094 130.863281 41.304688 M 160.46875 25.269531 L 138.875 25.269531 C 138.527344 25.269531 138.351562 25.445312 138.351562 25.792969 L 138.351562 58.382812 C 138.351562 58.730469 138.527344 58.90625 138.875 58.90625 L 160.46875 58.90625 C 160.816406 58.90625 160.992188 58.730469 160.992188 58.382812 L 160.992188 53.152344 C 160.992188 52.804688 160.816406 52.628906 160.46875 52.628906 L 146.015625 52.628906 C 145.839844 52.628906 145.667969 52.457031 145.667969 52.28125 L 145.667969 45.3125 C 145.667969 45.136719 145.839844 44.960938 146.015625 44.960938 L 158.03125 44.960938 C 158.378906 44.960938 158.554688 44.789062 158.554688 44.441406 L 158.554688 39.210938 C 158.554688 38.863281 158.378906 38.6875 158.03125 38.6875 L 146.015625 38.6875 C 145.839844 38.6875 145.667969 38.515625 145.667969 38.339844 L 145.667969 31.71875 C 145.667969 31.542969 145.839844 31.371094 146.015625 31.371094 L 160.46875 31.371094 C 160.816406 31.371094 160.992188 31.195312 160.992188 30.847656 L 160.992188 25.617188 C 160.816406 25.269531 160.644531 25.269531 160.46875 25.269531 M 191.46875 40.082031 L 179.972656 40.082031 C 179.625 40.082031 179.453125 40.257812 179.453125 40.605469 L 179.453125 45.3125 C 179.453125 45.660156 179.625 45.835938 179.972656 45.835938 L 184.5 45.835938 C 184.675781 45.835938 184.851562 46.007812 184.851562 46.183594 C 184.851562 46.878906 184.851562 47.578125 184.675781 48.097656 C 184.675781 48.621094 184.5 49.144531 184.328125 49.492188 C 183.980469 50.539062 183.28125 51.410156 182.238281 52.109375 C 181.191406 52.628906 180.148438 52.980469 178.929688 52.980469 C 177.363281 52.980469 176.316406 52.628906 175.273438 51.933594 C 174.402344 51.238281 173.703125 50.363281 173.355469 49.144531 C 173.183594 48.796875 173.183594 48.449219 173.183594 48.097656 C 173.183594 47.75 173.007812 47.226562 173.007812 46.707031 C 173.007812 46.183594 173.007812 45.484375 172.832031 44.789062 L 172.832031 39.210938 C 172.832031 38.515625 172.832031 37.816406 173.007812 37.292969 C 173.007812 36.773438 173.183594 36.25 173.183594 35.902344 C 173.183594 35.550781 173.355469 35.203125 173.355469 34.855469 C 173.703125 33.636719 174.402344 32.761719 175.273438 32.066406 C 176.140625 31.371094 177.363281 31.019531 178.753906 31.019531 C 180.148438 31.019531 181.191406 31.371094 182.238281 31.890625 C 183.109375 32.414062 183.980469 33.285156 184.5 34.507812 C 184.675781 34.855469 184.851562 34.855469 185.199219 34.679688 L 190.421875 32.414062 C 190.769531 32.242188 190.769531 32.066406 190.597656 31.71875 C 190.25 30.671875 189.726562 29.800781 189.027344 28.929688 C 188.332031 28.058594 187.460938 27.359375 186.417969 26.664062 C 185.371094 25.96875 184.328125 25.445312 182.933594 25.09375 C 181.714844 24.746094 180.148438 24.574219 178.582031 24.574219 C 175.621094 24.574219 173.007812 25.269531 170.742188 26.664062 C 168.480469 28.058594 167.085938 29.976562 166.214844 32.761719 C 166.042969 33.285156 165.867188 33.984375 165.695312 34.507812 C 165.519531 35.027344 165.519531 35.726562 165.34375 36.421875 C 165.34375 37.121094 165.171875 37.992188 165.171875 38.863281 L 165.171875 45.136719 C 165.171875 46.007812 165.171875 46.878906 165.34375 47.578125 C 165.34375 48.273438 165.519531 48.972656 165.695312 49.492188 C 165.867188 50.015625 166.042969 50.714844 166.214844 51.238281 C 167.085938 54.023438 168.65625 55.941406 170.742188 57.335938 C 173.007812 58.730469 175.445312 59.425781 178.582031 59.425781 C 181.539062 59.425781 184.152344 58.730469 186.242188 57.335938 C 188.332031 55.941406 189.898438 53.851562 190.769531 51.0625 C 191.117188 50.191406 191.292969 48.972656 191.46875 47.75 C 191.640625 46.355469 191.640625 44.960938 191.640625 43.570312 L 191.640625 40.78125 C 191.988281 40.257812 191.816406 40.082031 191.46875 40.082031 M 204.875 25.269531 L 198.605469 25.269531 C 198.257812 25.269531 198.085938 25.445312 198.085938 25.792969 L 198.085938 58.382812 C 198.085938 58.730469 198.257812 58.90625 198.605469 58.90625 L 204.875 58.90625 C 205.222656 58.90625 205.398438 58.730469 205.398438 58.382812 L 205.398438 25.617188 C 205.398438 25.269531 205.222656 25.269531 204.875 25.269531 M 230.476562 44.789062 C 230.476562 45.660156 230.476562 46.183594 230.300781 46.707031 C 230.300781 47.226562 230.128906 47.75 230.128906 48.097656 C 230.128906 48.449219 229.953125 48.796875 229.953125 49.144531 C 229.605469 50.363281 228.90625 51.238281 228.039062 51.933594 C 227.167969 52.628906 225.949219 52.980469 224.554688 52.980469 C 223.160156 52.980469 222.117188 52.628906 221.070312 51.933594 C 220.199219 51.238281 219.503906 50.363281 219.15625 49.144531 C 218.980469 48.796875 218.980469 48.449219 218.980469 48.097656 C 218.980469 47.75 218.808594 47.226562 218.808594 46.707031 C 218.808594 46.183594 218.808594 45.484375 218.632812 44.789062 L 218.632812 39.210938 C 218.632812 38.339844 218.632812 37.816406 218.808594 37.292969 C 218.808594 36.773438 218.980469 36.25 218.980469 35.902344 C 218.980469 35.550781 219.15625 35.203125 219.15625 34.855469 C 219.503906 33.636719 220.199219 32.761719 221.070312 32.066406 C 221.941406 31.371094 223.160156 31.019531 224.554688 31.019531 C 225.949219 31.019531 226.992188 31.371094 228.039062 32.066406 C 228.90625 32.761719 229.605469 33.636719 229.953125 34.855469 C 230.128906 35.203125 230.128906 35.550781 230.128906 35.902344 C 230.128906 36.25 230.300781 36.773438 230.300781 37.292969 C 230.300781 37.816406 230.300781 38.515625 230.476562 39.210938 L 230.476562 44.789062 M 237.613281 36.421875 C 237.613281 35.726562 237.441406 35.027344 237.265625 34.507812 C 237.09375 33.984375 236.917969 33.285156 236.746094 32.761719 C 235.875 30.148438 234.304688 28.058594 232.214844 26.664062 C 229.953125 25.269531 227.515625 24.574219 224.554688 24.574219 C 221.59375 24.574219 219.15625 25.269531 216.890625 26.664062 C 214.628906 28.058594 213.234375 30.148438 212.363281 32.761719 C 212.191406 33.285156 212.015625 33.984375 211.84375 34.507812 C 211.667969 35.027344 211.667969 35.726562 211.492188 36.421875 C 211.492188 37.121094 211.320312 37.992188 211.320312 38.863281 L 211.320312 45.136719 C 211.320312 46.007812 211.320312 46.878906 211.492188 47.578125 C 211.492188 48.273438 211.667969 48.972656 211.84375 49.492188 C 212.015625 50.015625 212.191406 50.714844 212.363281 51.238281 C 213.234375 54.023438 214.800781 55.941406 216.890625 57.335938 C 219.15625 58.730469 221.59375 59.425781 224.554688 59.425781 C 227.515625 59.425781 230.128906 58.730469 232.214844 57.335938 C 234.480469 55.941406 235.875 54.023438 236.746094 51.238281 C 236.917969 50.714844 237.09375 50.015625 237.265625 49.492188 C 237.441406 48.972656 237.441406 48.273438 237.613281 47.578125 C 237.613281 46.878906 237.789062 46.183594 237.789062 45.136719 L 237.789062 38.863281 C 237.789062 37.816406 237.613281 37.121094 237.613281 36.421875 M 269.308594 25.269531 L 263.738281 25.269531 C 263.386719 25.269531 263.214844 25.445312 263.214844 25.792969 L 263.214844 46.878906 L 263.039062 46.878906 L 251.199219 25.792969 C 251.023438 25.445312 250.675781 25.269531 250.328125 25.269531 L 244.40625 25.269531 C 244.058594 25.269531 243.882812 25.445312 243.882812 25.792969 L 243.882812 58.382812 C 243.882812 58.730469 244.058594 58.90625 244.40625 58.90625 L 249.980469 58.90625 C 250.328125 58.90625 250.5 58.730469 250.5 58.382812 L 250.5 37.121094 L 250.675781 37.121094 L 262.519531 58.207031 C 262.691406 58.554688 263.039062 58.730469 263.386719 58.730469 L 269.308594 58.730469 C 269.65625 58.730469 269.832031 58.554688 269.832031 58.207031 L 269.832031 25.617188 C 269.832031 25.269531 269.65625 25.269531 269.308594 25.269531 M 294.210938 44.789062 C 294.210938 45.484375 294.210938 46.183594 294.039062 46.707031 C 294.039062 47.226562 293.863281 47.578125 293.863281 47.925781 C 293.863281 48.273438 293.6875 48.449219 293.6875 48.796875 C 293.339844 50.191406 292.46875 51.238281 291.601562 51.757812 C 290.554688 52.28125 289.160156 52.628906 287.59375 52.628906 L 283.761719 52.628906 C 283.589844 52.628906 283.414062 52.457031 283.414062 52.28125 L 283.414062 31.890625 C 283.414062 31.71875 283.589844 31.542969 283.761719 31.542969 L 287.59375 31.542969 C 289.335938 31.542969 290.554688 31.890625 291.601562 32.414062 C 292.644531 32.9375 293.339844 33.984375 293.6875 35.378906 C 293.863281 35.726562 293.863281 35.902344 293.863281 36.25 C 293.863281 36.597656 294.039062 36.945312 294.039062 37.46875 C 294.039062 37.992188 294.039062 38.515625 294.210938 39.386719 L 294.210938 44.789062 M 301.351562 36.074219 C 301.351562 35.378906 301.175781 34.855469 301.003906 34.332031 C 300.828125 33.808594 300.828125 33.285156 300.65625 32.9375 C 299.785156 30.324219 298.390625 28.582031 296.476562 27.1875 C 294.558594 25.96875 292.121094 25.269531 289.160156 25.269531 L 276.625 25.269531 C 276.273438 25.269531 276.101562 25.445312 276.101562 25.792969 L 276.101562 58.382812 C 276.101562 58.730469 276.273438 58.90625 276.625 58.90625 L 289.160156 58.90625 C 292.121094 58.90625 294.558594 58.207031 296.476562 56.988281 C 298.390625 55.769531 299.785156 53.851562 300.65625 51.238281 C 300.828125 50.714844 300.828125 50.363281 301.003906 49.84375 C 301.175781 49.320312 301.175781 48.796875 301.351562 48.097656 C 301.351562 47.402344 301.527344 46.53125 301.527344 45.660156 L 301.527344 38.6875 C 301.351562 37.46875 301.351562 36.773438 301.351562 36.074219 M 325.730469 44.789062 C 325.730469 45.660156 325.730469 46.183594 325.558594 46.707031 C 325.558594 47.226562 325.382812 47.75 325.382812 48.097656 C 325.382812 48.449219 325.210938 48.796875 325.210938 49.144531 C 324.859375 50.363281 324.164062 51.238281 323.292969 51.933594 C 322.421875 52.628906 321.203125 52.980469 319.8125 52.980469 C 318.417969 52.980469 317.371094 52.628906 316.328125 51.933594 C 315.457031 51.238281 314.761719 50.363281 314.414062 49.144531 C 314.238281 48.796875 314.238281 48.449219 314.238281 48.097656 C 314.238281 47.75 314.0625 47.226562 314.0625 46.707031 C 314.0625 46.183594 314.0625 45.484375 313.890625 44.789062 L 313.890625 39.210938 C 313.890625 38.339844 313.890625 37.816406 314.0625 37.292969 C 314.0625 36.773438 314.238281 36.25 314.238281 35.902344 C 314.238281 35.550781 314.414062 35.203125 314.414062 34.855469 C 314.761719 33.636719 315.457031 32.761719 316.328125 32.066406 C 317.199219 31.371094 318.417969 31.019531 319.8125 31.019531 C 321.203125 31.019531 322.25 31.371094 323.292969 32.066406 C 324.164062 32.761719 324.859375 33.636719 325.210938 34.855469 C 325.382812 35.203125 325.382812 35.550781 325.382812 35.902344 C 325.382812 36.25 325.558594 36.773438 325.558594 37.292969 C 325.558594 37.816406 325.558594 38.515625 325.730469 39.210938 L 325.730469 44.789062 M 333.046875 38.6875 C 333.046875 37.816406 333.046875 36.945312 332.871094 36.25 C 332.871094 35.550781 332.699219 34.855469 332.523438 34.332031 C 332.347656 33.808594 332.175781 33.113281 332 32.589844 C 331.128906 29.976562 329.5625 27.882812 327.472656 26.488281 C 325.210938 25.09375 322.769531 24.398438 319.8125 24.398438 C 316.851562 24.398438 314.238281 25.09375 312.148438 26.488281 C 309.882812 27.882812 308.492188 29.976562 307.621094 32.589844 C 307.445312 33.113281 307.273438 33.808594 307.097656 34.332031 C 306.925781 34.855469 306.925781 35.550781 306.75 36.25 C 306.75 36.945312 306.574219 37.816406 306.574219 38.6875 L 306.574219 44.960938 C 306.574219 45.835938 306.574219 46.707031 306.75 47.402344 C 306.75 48.097656 306.925781 48.796875 307.097656 49.320312 C 307.273438 49.84375 307.445312 50.539062 307.621094 51.0625 C 308.492188 53.851562 310.058594 55.769531 312.148438 57.160156 C 314.414062 58.554688 316.851562 59.253906 319.8125 59.253906 C 322.769531 59.253906 325.210938 58.554688 327.472656 57.160156 C 329.738281 55.769531 331.128906 53.851562 332 51.0625 C 332.175781 50.539062 332.347656 49.84375 332.523438 49.320312 C 332.699219 48.796875 332.699219 48.097656 332.871094 47.402344 C 332.871094 46.707031 333.046875 45.835938 333.046875 44.960938 L 333.046875 38.6875 M 26.03125 8.363281 C 26.03125 6.796875 27.25 5.578125 28.816406 5.578125 L 56.855469 5.578125 C 58.421875 5.578125 59.640625 6.796875 59.640625 8.363281 L 59.640625 15.335938 L 65.214844 15.335938 L 65.214844 8.363281 C 65.214844 3.660156 61.382812 0 56.855469 0 L 28.816406 0 C 24.117188 0 20.457031 3.835938 20.457031 8.363281 L 20.457031 54.546875 L 26.03125 54.546875 Z M 26.03125 8.363281 "/>
<path style=" stroke:none;fill-rule:nonzero;fill:rgb(90.196078%,33.333333%,17.647059%);fill-opacity:1;" d="M 55.460938 58.730469 L 9.3125 58.730469 C 7.746094 58.730469 6.527344 57.511719 6.527344 55.941406 L 6.527344 51.585938 C 10.007812 49.667969 12.097656 45.835938 12.097656 42 C 12.097656 37.992188 10.007812 34.332031 6.527344 32.414062 L 6.527344 28.058594 C 6.527344 26.488281 7.746094 25.269531 9.3125 25.269531 L 16.277344 25.269531 L 16.277344 19.691406 L 9.3125 19.691406 C 4.609375 19.691406 0.953125 23.527344 0.953125 28.058594 L 0.953125 36.074219 L 2.871094 36.773438 C 5.132812 37.644531 6.527344 39.734375 6.527344 42 C 6.527344 44.265625 4.960938 46.53125 2.871094 47.226562 L 0.953125 47.925781 L 0.953125 55.941406 C 0.953125 60.648438 4.785156 64.308594 9.3125 64.308594 L 55.460938 64.308594 Z M 76.359375 19.519531 L 30.210938 19.519531 L 30.210938 25.09375 L 76.359375 25.09375 C 77.925781 25.09375 79.144531 26.316406 79.144531 27.882812 L 79.144531 32.242188 C 75.660156 34.15625 73.570312 37.992188 73.570312 41.824219 C 73.570312 45.835938 75.660156 49.492188 79.144531 51.410156 L 79.144531 55.769531 C 79.144531 57.335938 77.925781 58.554688 76.359375 58.554688 L 69.390625 58.554688 L 69.390625 64.132812 L 76.359375 64.132812 C 81.058594 64.132812 84.71875 60.296875 84.71875 55.769531 L 84.71875 47.75 L 82.800781 47.054688 C 80.539062 46.183594 79.144531 44.089844 79.144531 41.824219 C 79.144531 39.558594 80.710938 37.292969 82.800781 36.597656 L 84.71875 35.902344 L 84.71875 27.882812 C 84.890625 23.351562 81.058594 19.519531 76.359375 19.519531 "/>
<path style=" stroke:none;fill-rule:nonzero;fill:rgb(90.196078%,33.333333%,17.647059%);fill-opacity:1;" d="M 59.640625 75.460938 C 59.640625 77.027344 58.421875 78.25 56.855469 78.25 L 28.816406 78.25 C 27.25 78.25 26.03125 77.027344 26.03125 75.460938 L 26.03125 68.488281 L 20.457031 68.488281 L 20.457031 75.460938 C 20.457031 80.164062 24.289062 83.824219 28.816406 83.824219 L 56.855469 83.824219 C 61.554688 83.824219 65.214844 79.992188 65.214844 75.460938 L 65.214844 29.453125 L 59.640625 29.453125 Z M 59.640625 75.460938 "/>
<path style=" stroke:none;fill-rule:nonzero;fill:rgb(90.196078%,33.333333%,17.647059%);fill-opacity:1;" d="M 40.136719 72.671875 C 40.136719 74.242188 41.355469 75.460938 42.921875 75.460938 C 44.488281 75.460938 45.710938 74.242188 45.710938 72.671875 C 45.710938 71.105469 44.488281 69.882812 42.921875 69.882812 C 41.355469 69.882812 40.136719 71.277344 40.136719 72.671875 M 35.261719 8.363281 C 34.914062 8.363281 34.5625 8.714844 34.5625 9.0625 C 34.5625 9.410156 34.914062 9.757812 35.261719 9.757812 L 50.585938 9.757812 C 50.933594 9.757812 51.28125 9.410156 51.28125 9.0625 C 51.28125 8.714844 50.933594 8.363281 50.585938 8.363281 Z M 35.261719 8.363281 "/>
</g>
</svg>
