<?xml version="1.0" encoding="UTF-8"?>
<svg xmlns="http://www.w3.org/2000/svg" xmlns:xlink="http://www.w3.org/1999/xlink" width="188px" height="84px" viewBox="0 0 324 84" version="1.1">
<g id="surface1">
<path style=" stroke:none;fill-rule:nonzero;fill:rgb(97.254902%,64.313725%,16.470588%);fill-opacity:1;" d="M 19.28125 36.398438 L 0.00390625 25.15625 L 0.00390625 61.585938 C 0 63.421875 0.96875 65.117188 2.550781 66.042969 L 33.730469 84.226562 L 33.730469 61.683594 C 33.746094 51.28125 28.246094 41.652344 19.28125 36.398438 M 51.945312 30.148438 L 71.222656 18.90625 L 39.992188 0.691406 C 38.417969 -0.230469 36.46875 -0.230469 34.898438 0.691406 L 3.714844 18.878906 L 23.042969 30.148438 C 31.972656 35.363281 43.015625 35.363281 51.949219 30.148438 M 74.753906 61.664062 L 74.753906 25.292969 L 55.425781 36.558594 C 46.460938 41.8125 40.957031 51.4375 40.96875 61.84375 L 40.96875 84.328125 L 72.203125 66.113281 C 73.785156 65.1875 74.753906 63.492188 74.75 61.65625 "/>
<path style=" stroke:none;fill-rule:nonzero;fill:rgb(21.176471%,21.176471%,21.176471%);fill-opacity:1;" d="M 295.386719 35.96875 L 295.386719 58.75 C 295.363281 59.019531 295.457031 59.285156 295.644531 59.476562 C 295.835938 59.667969 296.101562 59.765625 296.367188 59.742188 L 297.347656 59.742188 C 297.617188 59.765625 297.882812 59.671875 298.074219 59.476562 C 298.261719 59.285156 298.355469 59.019531 298.332031 58.75 L 298.332031 35.96875 C 298.355469 35.703125 298.261719 35.433594 298.074219 35.242188 C 297.882812 35.050781 297.617188 34.953125 297.347656 34.976562 L 296.367188 34.976562 C 296.101562 34.957031 295.835938 35.050781 295.644531 35.242188 C 295.457031 35.4375 295.363281 35.703125 295.386719 35.96875 M 208.257812 35.773438 L 208.257812 58.949219 C 208.269531 59.378906 208.613281 59.726562 209.042969 59.738281 L 213.847656 59.738281 C 214.277344 59.726562 214.621094 59.378906 214.628906 58.949219 L 214.628906 35.773438 C 214.621094 35.34375 214.277344 34.996094 213.847656 34.976562 L 209.042969 34.976562 C 208.613281 34.992188 208.269531 35.34375 208.257812 35.773438 M 124.085938 51.074219 C 123.992188 52.707031 122.765625 54.046875 120.410156 54.046875 C 118.007812 54.046875 116.832031 52.808594 116.683594 51.074219 C 116.539062 48.597656 116.539062 46.121094 116.683594 43.644531 C 116.832031 41.761719 118.007812 40.675781 120.410156 40.675781 C 122.765625 40.675781 123.992188 42.011719 124.085938 43.644531 C 124.234375 46.121094 124.234375 48.601562 124.085938 51.074219 M 130.457031 51.074219 C 130.609375 48.601562 130.609375 46.121094 130.457031 43.644531 C 130.066406 38.449219 126.292969 34.4375 121.148438 34.4375 C 120.132812 34.40625 119.125 34.609375 118.203125 35.03125 C 117.46875 35.328125 116.734375 35.082031 116.734375 33.992188 L 116.734375 25.574219 C 116.734375 25.03125 116.296875 24.589844 115.753906 24.582031 L 111.339844 24.582031 C 110.796875 24.585938 110.359375 25.03125 110.359375 25.574219 L 110.359375 58.742188 C 110.359375 59.289062 110.796875 59.730469 111.339844 59.734375 L 113.792969 59.734375 C 114.0625 59.726562 114.3125 59.597656 114.480469 59.386719 C 114.761719 58.96875 115.207031 58.683594 115.703125 58.597656 C 117.128906 58.597656 117.519531 60.277344 121.148438 60.277344 C 126.292969 60.277344 130.066406 56.265625 130.460938 51.070312 M 148.503906 51.070312 C 148.257812 52.703125 147.179688 53.84375 144.679688 53.84375 C 142.226562 53.84375 141.148438 52.804688 140.902344 51.070312 C 140.609375 48.601562 140.609375 46.109375 140.902344 43.640625 C 141.199219 41.757812 142.226562 40.867188 144.679688 40.867188 C 147.179688 40.867188 148.257812 42.007812 148.503906 43.640625 C 148.800781 46.109375 148.800781 48.601562 148.503906 51.070312 M 154.875 51.070312 C 155.121094 48.601562 155.121094 46.113281 154.875 43.640625 C 154.238281 38.445312 150.710938 34.433594 144.679688 34.433594 C 138.699219 34.433594 135.167969 38.445312 134.53125 43.640625 C 134.285156 46.113281 134.285156 48.601562 134.53125 51.070312 C 135.167969 56.265625 138.699219 60.277344 144.730469 60.277344 C 150.710938 60.277344 154.238281 56.265625 154.875 51.070312 M 173.109375 51.070312 C 172.867188 52.703125 171.789062 53.84375 169.289062 53.84375 C 166.835938 53.84375 165.757812 52.804688 165.511719 51.070312 C 165.21875 48.601562 165.21875 46.109375 165.511719 43.640625 C 165.808594 41.757812 166.835938 40.867188 169.289062 40.867188 C 171.789062 40.867188 172.867188 42.007812 173.109375 43.640625 C 173.40625 46.109375 173.40625 48.601562 173.109375 51.070312 M 179.484375 51.070312 C 179.726562 48.601562 179.726562 46.113281 179.484375 43.640625 C 178.847656 38.445312 175.316406 34.433594 169.289062 34.433594 C 163.308594 34.433594 159.777344 38.445312 159.140625 43.640625 C 158.894531 46.113281 158.894531 48.601562 159.140625 51.070312 C 159.773438 56.265625 163.308594 60.277344 169.335938 60.277344 C 175.316406 60.277344 178.847656 56.265625 179.484375 51.070312 M 204.332031 58.109375 L 196.34375 47.265625 C 195.855469 46.621094 195.855469 46.320312 196.296875 45.777344 L 203.601562 36.613281 C 203.855469 36.3125 203.90625 35.894531 203.738281 35.542969 C 203.566406 35.1875 203.207031 34.96875 202.816406 34.980469 L 197.960938 34.980469 C 197.464844 34.941406 196.988281 35.191406 196.738281 35.625 L 191.050781 43.007812 C 190.984375 43.109375 190.863281 43.152344 190.75 43.117188 C 190.636719 43.085938 190.558594 42.980469 190.558594 42.859375 L 190.558594 25.574219 C 190.5625 25.03125 190.125 24.585938 189.578125 24.582031 L 185.167969 24.582031 C 184.625 24.585938 184.1875 25.03125 184.1875 25.574219 L 184.1875 58.742188 C 184.1875 59.289062 184.625 59.730469 185.167969 59.734375 L 189.578125 59.734375 C 190.125 59.730469 190.5625 59.289062 190.558594 58.742188 L 190.558594 50.574219 C 190.558594 50.453125 190.636719 50.347656 190.75 50.316406 C 190.863281 50.28125 190.984375 50.324219 191.050781 50.425781 L 197.171875 59 C 197.425781 59.460938 197.914062 59.746094 198.441406 59.742188 L 203.539062 59.742188 C 203.9375 59.769531 204.3125 59.550781 204.484375 59.191406 C 204.65625 58.832031 204.59375 58.402344 204.324219 58.109375 M 214.871094 30.726562 L 214.871094 25.378906 C 214.859375 24.949219 214.515625 24.601562 214.085938 24.589844 L 208.789062 24.589844 C 208.359375 24.601562 208.015625 24.949219 208.007812 25.378906 L 208.007812 30.726562 C 208.003906 30.9375 208.085938 31.136719 208.234375 31.285156 C 208.378906 31.4375 208.582031 31.519531 208.789062 31.519531 L 214.085938 31.519531 C 214.296875 31.519531 214.5 31.4375 214.644531 31.285156 C 214.792969 31.136719 214.875 30.9375 214.871094 30.726562 M 240.851562 58.75 L 240.851562 43.644531 C 240.910156 41.207031 239.976562 38.847656 238.269531 37.113281 C 236.558594 35.375 234.214844 34.410156 231.78125 34.4375 C 228.84375 34.4375 227.8125 36.167969 226.390625 36.167969 C 225.703125 36.167969 225.460938 35.675781 225.066406 35.328125 C 224.839844 35.089844 224.515625 34.960938 224.1875 34.980469 L 221.734375 34.980469 C 221.191406 34.984375 220.753906 35.425781 220.753906 35.972656 L 220.753906 58.753906 C 220.753906 59.296875 221.191406 59.738281 221.734375 59.746094 L 226.144531 59.746094 C 226.6875 59.742188 227.125 59.296875 227.125 58.753906 L 227.125 43.398438 C 227.125 41.910156 228.496094 40.675781 230.808594 40.675781 C 233.160156 40.675781 234.484375 41.964844 234.484375 43.597656 L 234.484375 58.742188 C 234.484375 59.285156 234.921875 59.730469 235.464844 59.734375 L 239.875 59.734375 C 240.417969 59.730469 240.859375 59.289062 240.855469 58.742188 M 259.535156 51.066406 C 259.382812 52.800781 258.207031 54.039062 255.808594 54.039062 C 253.453125 54.039062 252.226562 52.699219 252.121094 51.066406 C 251.976562 48.59375 251.976562 46.113281 252.121094 43.640625 C 252.222656 42.003906 253.449219 40.671875 255.808594 40.671875 C 258.207031 40.671875 259.382812 41.757812 259.535156 43.640625 C 259.679688 46.113281 259.679688 48.59375 259.535156 51.066406 M 265.855469 61.21875 L 265.855469 35.96875 C 265.855469 35.425781 265.417969 34.980469 264.875 34.976562 L 262.425781 34.976562 C 262.15625 34.992188 261.90625 35.117188 261.738281 35.324219 C 261.453125 35.746094 261.011719 36.03125 260.515625 36.121094 C 259.089844 36.121094 258.699219 34.433594 255.070312 34.433594 C 249.925781 34.433594 246.148438 38.445312 245.757812 43.644531 C 245.609375 46.117188 245.609375 48.597656 245.757812 51.070312 C 246.148438 56.269531 249.925781 60.28125 255.070312 60.28125 C 256.082031 60.285156 257.082031 60.085938 258.011719 59.6875 C 258.945312 59.339844 259.480469 59.738281 259.480469 60.726562 L 259.480469 61.222656 C 259.476562 62.144531 259.089844 63.019531 258.410156 63.640625 C 257.730469 64.261719 256.820312 64.570312 255.90625 64.492188 C 253.945312 64.492188 252.71875 63.546875 252.476562 62.359375 C 252.328125 61.667969 252.375 61.222656 251.203125 61.222656 L 247.519531 61.222656 C 246.976562 61.226562 246.539062 61.667969 246.542969 62.214844 C 246.542969 67.015625 251 70.378906 256.199219 70.378906 C 258.699219 70.472656 261.128906 69.550781 262.945312 67.828125 C 264.761719 66.105469 265.8125 63.722656 265.855469 61.21875 M 289.703125 57.996094 L 278.230469 47.453125 C 278.035156 47.316406 277.921875 47.09375 277.921875 46.855469 C 277.921875 46.621094 278.035156 46.398438 278.230469 46.261719 L 288.964844 36.605469 C 289.265625 36.339844 289.359375 35.910156 289.207031 35.542969 C 289.050781 35.171875 288.679688 34.945312 288.28125 34.972656 L 287.398438 34.972656 C 286.871094 34.972656 286.367188 35.210938 286.027344 35.617188 L 276.171875 44.378906 C 275.976562 44.527344 275.777344 44.527344 275.777344 44.28125 L 275.777344 25.722656 C 275.78125 25.179688 275.34375 24.734375 274.800781 24.730469 L 273.867188 24.730469 C 273.324219 24.734375 272.886719 25.175781 272.886719 25.722656 L 272.886719 58.742188 C 272.886719 59.289062 273.324219 59.730469 273.867188 59.734375 L 274.800781 59.734375 C 275.34375 59.730469 275.78125 59.289062 275.777344 58.742188 L 275.777344 49.492188 C 275.777344 49.242188 276.023438 49.242188 276.171875 49.390625 L 286.566406 58.996094 C 286.933594 59.4375 287.464844 59.703125 288.039062 59.742188 L 289.015625 59.742188 C 289.441406 59.773438 289.839844 59.527344 289.996094 59.128906 C 290.15625 58.730469 290.035156 58.277344 289.703125 58.007812 M 298.867188 28.148438 L 298.867188 25.527344 C 298.859375 25.09375 298.515625 24.746094 298.085938 24.734375 L 295.539062 24.734375 C 295.105469 24.746094 294.761719 25.09375 294.75 25.527344 L 294.75 28.148438 C 294.746094 28.359375 294.828125 28.5625 294.976562 28.714844 C 295.125 28.863281 295.328125 28.949219 295.539062 28.945312 L 298.085938 28.945312 C 298.296875 28.949219 298.496094 28.863281 298.644531 28.714844 C 298.792969 28.5625 298.875 28.359375 298.867188 28.148438 M 323.816406 52.316406 C 323.816406 51.769531 323.375 51.328125 322.832031 51.324219 L 321.804688 51.324219 C 321.261719 51.328125 320.824219 51.769531 320.824219 52.316406 C 320.824219 55.089844 319.109375 57.265625 316.316406 57.265625 C 313.816406 57.265625 311.660156 55.289062 311.660156 51.820312 L 311.660156 38.648438 C 311.652344 38.515625 311.699219 38.386719 311.792969 38.289062 C 311.886719 38.195312 312.015625 38.144531 312.148438 38.152344 L 320.289062 38.152344 C 320.832031 38.148438 321.269531 37.707031 321.269531 37.160156 L 321.269531 36.214844 C 321.269531 35.671875 320.832031 35.230469 320.289062 35.226562 L 312.148438 35.226562 C 312.015625 35.234375 311.886719 35.183594 311.792969 35.089844 C 311.699219 34.996094 311.652344 34.867188 311.660156 34.734375 L 311.660156 27.058594 C 311.660156 26.511719 311.222656 26.070312 310.679688 26.066406 L 309.699219 26.066406 C 309.15625 26.070312 308.714844 26.511719 308.71875 27.058594 L 308.71875 34.734375 C 308.726562 34.867188 308.675781 34.996094 308.582031 35.089844 C 308.488281 35.183594 308.359375 35.234375 308.226562 35.226562 L 305.460938 35.226562 C 304.914062 35.230469 304.476562 35.671875 304.480469 36.214844 L 304.480469 37.160156 C 304.476562 37.703125 304.914062 38.148438 305.460938 38.152344 L 308.21875 38.152344 C 308.351562 38.144531 308.484375 38.195312 308.578125 38.289062 C 308.671875 38.382812 308.71875 38.511719 308.710938 38.644531 L 308.710938 52.3125 C 308.652344 54.375 309.425781 56.378906 310.855469 57.867188 C 312.28125 59.355469 314.25 60.210938 316.308594 60.234375 C 318.363281 60.203125 320.3125 59.34375 321.722656 57.855469 C 323.136719 56.363281 323.886719 54.363281 323.808594 52.3125 "/>
</g>
</svg>
