<?xml version="1.0" encoding="UTF-8"?>
<svg xmlns="http://www.w3.org/2000/svg" xmlns:xlink="http://www.w3.org/1999/xlink" width="188px" height="84px" viewBox="0 0 188 84" version="1.1">
<g id="surface1">
<path style=" stroke:none;fill-rule:nonzero;fill:rgb(18.039216%,21.176471%,27.058824%);fill-opacity:1;" d="M 21.769531 70.578125 C 21.769531 69.023438 20.476562 67.792969 18.964844 67.792969 L 10.289062 67.792969 L 10.289062 73.46875 L 18.269531 73.46875 C 19.613281 73.46875 20.425781 73.097656 20.910156 72.613281 C 21.445312 72.078125 21.769531 71.382812 21.769531 70.578125 Z M 10.289062 53.714844 L 10.289062 59.121094 L 15.574219 59.121094 C 16.703125 59.121094 17.460938 58.746094 17.890625 58.320312 C 18.375 57.839844 18.699219 57.144531 18.699219 56.394531 C 18.699219 54.894531 17.511719 53.714844 16.003906 53.714844 Z M 33.148438 70.578125 C 33.148438 73.738281 31.90625 76.734375 29.75 78.820312 C 27.652344 80.960938 24.738281 82.300781 19.941406 82.300781 L 0 82.300781 L 0 45.207031 L 16.976562 45.152344 C 21.9375 45.152344 24.199219 46.328125 26.410156 48.527344 C 28.5625 50.722656 29.210938 53.34375 29.210938 56.398438 C 29.210938 58.964844 28.402344 60.679688 27.539062 61.425781 C 28.078125 61.480469 28.941406 61.746094 29.75 62.550781 C 32.015625 64.800781 33.148438 67.367188 33.148438 70.578125 Z M 33.148438 70.578125 "/>
<path style=" stroke:none;fill-rule:nonzero;fill:rgb(18.039216%,21.176471%,27.058824%);fill-opacity:1;" d="M 149.058594 45.207031 L 149.058594 67.796875 C 149.058594 72.183594 147.496094 76.039062 144.371094 79.09375 C 141.242188 82.199219 137.417969 83.800781 132.945312 83.800781 C 128.527344 83.800781 124.753906 82.199219 121.570312 79.09375 C 118.445312 76.039062 116.882812 72.183594 116.882812 67.796875 L 116.882812 45.207031 L 128.527344 45.207031 L 128.527344 67.796875 C 128.527344 70.257812 130.519531 72.183594 132.945312 72.183594 C 135.425781 72.183594 137.417969 70.257812 137.417969 67.796875 L 137.417969 45.207031 Z M 149.058594 45.207031 "/>
<path style=" stroke:none;fill-rule:nonzero;fill:rgb(18.039216%,21.176471%,27.058824%);fill-opacity:1;" d="M 175.515625 45.152344 L 175.515625 62.070312 L 163.550781 45.152344 L 151.964844 45.207031 L 151.964844 82.304688 L 163.550781 82.304688 L 163.550781 65.175781 L 175.570312 82.355469 L 175.675781 82.304688 L 187.15625 82.304688 L 187.15625 45.152344 Z M 175.515625 45.152344 "/>
<path style=" stroke:none;fill-rule:nonzero;fill:rgb(18.039216%,21.176471%,27.058824%);fill-opacity:1;" d="M 114.058594 45.152344 L 99.414062 45.152344 L 89.320312 58 L 89.320312 45.152344 L 77.679688 45.152344 L 77.679688 82.304688 L 89.320312 82.304688 L 89.320312 69.453125 L 99.414062 82.304688 L 114.058594 82.304688 L 99.914062 63.730469 Z M 114.058594 45.152344 "/>
<path style=" stroke:none;fill-rule:nonzero;fill:rgb(18.039216%,21.176471%,27.058824%);fill-opacity:1;" d="M 60.773438 57.949219 C 59.097656 56.289062 57.160156 55.484375 54.839844 55.484375 C 52.46875 55.484375 50.53125 56.289062 48.855469 57.949219 C 47.242188 59.554688 46.433594 61.535156 46.433594 63.835938 C 46.433594 66.136719 47.242188 68.117188 48.855469 69.777344 C 50.53125 71.382812 52.46875 72.183594 54.839844 72.183594 C 57.160156 72.183594 59.097656 71.382812 60.773438 69.777344 C 62.496094 68.121094 63.304688 66.136719 63.304688 63.835938 C 63.304688 61.535156 62.496094 59.554688 60.773438 57.949219 Z M 69.015625 77.914062 C 65.082031 81.769531 60.394531 83.746094 54.839844 83.746094 C 49.289062 83.746094 44.601562 81.769531 40.664062 77.914062 C 36.785156 74.003906 34.789062 69.296875 34.789062 63.835938 C 34.789062 58.324219 36.785156 53.613281 40.664062 49.757812 C 44.601562 45.847656 49.289062 43.871094 54.839844 43.871094 C 60.394531 43.871094 65.082031 45.847656 69.015625 49.757812 C 72.953125 53.613281 74.945312 58.324219 74.945312 63.835938 C 74.945312 69.296875 72.949219 74.003906 69.015625 77.914062 Z M 69.015625 77.914062 "/>
<path style=" stroke:none;fill-rule:nonzero;fill:rgb(11.372549%,34.117647%,78.039216%);fill-opacity:1;" d="M 134.171875 0 L 134.167969 0 L 113.355469 20.972656 L 115.835938 17.164062 L 112.582031 14.046875 L 104.828125 20.519531 L 100.933594 19.285156 L 78.386719 39.730469 L 186.738281 39.730469 L 181.894531 36.195312 L 162.992188 19.863281 L 149.578125 27.707031 L 158.285156 21.648438 Z M 114.5 24.101562 L 133.996094 4.335938 L 142.367188 15.339844 C 142.367188 15.339844 138.304688 13.167969 137.539062 13.167969 C 137.488281 13.167969 137.449219 13.179688 137.429688 13.203125 C 137.128906 13.535156 129.992188 22.300781 129.992188 22.300781 L 129.59375 17.125 L 128.171875 20 L 127.972656 17.40625 Z M 111.203125 17.894531 L 108.765625 23.171875 L 107.933594 22.394531 L 100.316406 30.824219 C 100.316406 30.824219 100.292969 29.722656 100.28125 29.324219 C 100.28125 29.265625 100.230469 29.238281 100.140625 29.238281 C 99.621094 29.238281 97.84375 30.09375 97.84375 30.09375 L 100.207031 25.226562 L 95.3125 26.265625 L 101.5 21.472656 L 103.785156 23.816406 Z M 150.199219 30.140625 L 163.230469 22.59375 L 169.171875 27.371094 L 165.667969 27.472656 L 163.078125 30.210938 L 163.011719 26.863281 L 150.257812 30.140625 Z M 150.199219 30.140625 "/>
<path style=" stroke:none;fill-rule:nonzero;fill:rgb(18.039216%,21.176471%,27.058824%);fill-opacity:1;" d="M 66.375 31.335938 L 57.714844 39.722656 L 50.019531 39.722656 L 57.714844 31.335938 Z M 66.375 31.335938 "/>
</g>
</svg>
