<?xml version="1.0" encoding="UTF-8"?>
<svg xmlns="http://www.w3.org/2000/svg" xmlns:xlink="http://www.w3.org/1999/xlink" width="188px" height="84px" viewBox="0 0 311 84" version="1.1">
<g id="surface1">
<path style=" stroke:none;fill-rule:nonzero;fill:rgb(9.803922%,13.72549%,17.647059%);fill-opacity:1;" d="M 41.933594 0 C 18.773438 0 0 18.804688 0 42 C 0 65.195312 18.773438 84 41.933594 84 C 65.089844 84 83.863281 65.195312 83.863281 42 C 83.863281 18.804688 65.089844 0 41.933594 0 Z M 63.085938 65.058594 C 61.453125 68.453125 58.382812 68.832031 55.101562 68.625 C 50.808594 68.359375 48.902344 63.433594 49.761719 60.039062 C 50.621094 56.644531 57.871094 54.382812 60.648438 56.714844 C 63.597656 59.210938 64.601562 61.90625 63.085938 65.058594 Z M 60.5 39.066406 C 53.496094 43.703125 28.792969 51.507812 38.3125 54.640625 C 38.3125 54.640625 42.003906 55.148438 42.027344 56.691406 C 42.074219 59.484375 39.875 59.832031 38.992188 59.578125 C 36.660156 58.910156 34.363281 60.011719 27.773438 62.378906 C 18.742188 65.625 13.484375 55.160156 21.84375 51.214844 C 22.070312 51.078125 41.804688 40.890625 42.023438 40.777344 C 51.296875 35.925781 44.035156 29.28125 35.746094 32.824219 C 29.761719 35.921875 24.03125 33.496094 21.292969 27.859375 C 16.644531 17.101562 33.058594 11.410156 38.386719 20.714844 C 41.46875 25.171875 49.21875 26.535156 53.292969 24.628906 C 63.832031 19.386719 70.675781 32.878906 60.503906 39.066406 Z M 60.5 39.066406 "/>
<path style=" stroke:none;fill-rule:evenodd;fill:rgb(9.803922%,13.72549%,17.647059%);fill-opacity:1;" d="M 213.320312 65.523438 C 216.269531 65.710938 219.03125 65.371094 220.496094 62.320312 C 221.859375 59.484375 220.953125 57.070312 218.304688 54.824219 C 215.8125 52.726562 209.292969 54.761719 208.519531 57.8125 C 207.746094 60.863281 209.464844 65.289062 213.320312 65.523438 Z M 213.320312 65.523438 "/>
<path style=" stroke:none;fill-rule:evenodd;fill:rgb(9.803922%,13.72549%,17.647059%);fill-opacity:1;" d="M 201.570312 54.808594 C 201.550781 53.421875 198.234375 52.964844 198.234375 52.964844 C 189.679688 50.148438 211.875 43.128906 218.171875 38.964844 C 227.3125 33.402344 221.164062 21.289062 211.691406 25.996094 C 208.023438 27.707031 201.070312 26.488281 198.300781 22.480469 C 193.511719 14.121094 178.765625 19.234375 182.941406 28.898438 C 183.925781 31.34375 185.925781 33.242188 188.417969 34.097656 C 190.90625 34.953125 193.648438 34.6875 195.925781 33.363281 C 203.371094 30.179688 209.902344 36.148438 201.566406 40.507812 C 201.371094 40.613281 183.636719 49.761719 183.4375 49.882812 C 175.921875 53.429688 180.640625 62.832031 188.757812 59.914062 C 194.679688 57.785156 196.742188 56.800781 198.839844 57.398438 C 199.648438 57.632812 201.617188 57.3125 201.570312 54.808594 Z M 201.570312 54.808594 "/>
<path style=" stroke:none;fill-rule:nonzero;fill:rgb(9.803922%,13.72549%,17.647059%);fill-opacity:1;" d="M 106.648438 66.292969 C 106.648438 66.292969 105.867188 66.363281 106.046875 65.503906 C 106.230469 64.644531 114.871094 23.957031 114.871094 23.957031 C 118.199219 20.972656 124.863281 19.476562 134.851562 19.476562 L 137.300781 19.535156 C 137.300781 19.535156 138.601562 19.535156 138.347656 20.710938 C 138.15625 21.621094 137.007812 27.195312 136.753906 28.320312 C 136.5 29.445312 135.128906 29.3125 135.128906 29.3125 L 132.765625 29.3125 C 130.21875 29.210938 127.683594 29.730469 125.382812 30.832031 C 125.382812 30.832031 118.34375 64.058594 118.09375 65.222656 C 117.972656 65.878906 117.378906 66.339844 116.710938 66.292969 M 116.710938 66.292969 "/>
<path style=" stroke:none;fill-rule:nonzero;fill:rgb(9.803922%,13.72549%,17.647059%);fill-opacity:1;" d="M 169.445312 64.039062 C 163.820312 65.507812 158.03125 66.242188 152.222656 66.226562 C 140.828125 66.226562 135.132812 62.199219 135.132812 54.144531 C 135.152344 52.59375 135.328125 51.050781 135.65625 49.539062 L 138.492188 36.207031 C 140.921875 24.796875 148.410156 19.09375 160.949219 19.089844 C 171.453125 19.089844 176.703125 23.089844 176.707031 31.089844 C 176.6875 32.8125 176.484375 34.527344 176.105469 36.207031 L 173.957031 46.441406 L 148.191406 46.441406 L 147.507812 49.535156 C 147.367188 50.171875 147.296875 50.820312 147.292969 51.472656 C 147.292969 54.820312 149.625 56.5 154.289062 56.503906 C 155.40625 56.5625 156.523438 56.589844 157.636719 56.589844 C 162.136719 56.605469 166.625 56.140625 171.027344 55.207031 C 171.027344 55.207031 172.195312 54.746094 171.886719 56.203125 C 171.644531 57.339844 170.644531 62.070312 170.433594 63.011719 C 170.359375 63.53125 169.960938 63.945312 169.445312 64.039062 Z M 149.773438 38.882812 L 163.6875 38.882812 L 164.246094 36.257812 C 164.429688 35.421875 164.53125 34.574219 164.542969 33.71875 C 164.542969 30.453125 162.699219 28.820312 159.007812 28.820312 C 154.253906 28.964844 151.363281 31.445312 150.332031 36.257812 Z M 149.773438 38.882812 "/>
<path style=" stroke:none;fill-rule:nonzero;fill:rgb(9.803922%,13.72549%,17.647059%);fill-opacity:1;" d="M 257.390625 65.847656 L 240.761719 66.226562 C 230.257812 66.226562 225.003906 62.226562 225.003906 54.226562 C 225.027344 52.503906 225.226562 50.789062 225.605469 49.109375 L 228.3125 36.207031 C 230.742188 24.792969 236.800781 19.089844 246.480469 19.089844 C 250.242188 18.96875 253.949219 20.019531 257.085938 22.097656 C 257.085938 22.097656 260.425781 6.421875 260.15625 7.71875 C 260.003906 8.441406 260.175781 6.617188 261.503906 6.617188 C 262.550781 6.617188 270.011719 6.617188 271.191406 6.617188 C 272.375 6.617188 272.027344 7.628906 272.027344 7.628906 C 272.027344 7.628906 260.550781 61.652344 260.070312 63.878906 C 259.835938 65.140625 258.664062 66.003906 257.390625 65.847656 Z M 255.363281 30.273438 C 252.980469 29.292969 250.425781 28.792969 247.847656 28.808594 C 243.785156 28.808594 241.25 31.132812 240.25 35.777344 L 237.328125 49.539062 C 237.140625 50.34375 237.039062 51.164062 237.027344 51.988281 C 237.027344 55 238.675781 56.503906 241.964844 56.503906 L 249.78125 56.503906 Z M 255.363281 30.273438 "/>
<path style=" stroke:none;fill-rule:nonzero;fill:rgb(9.803922%,13.72549%,17.647059%);fill-opacity:1;" d="M 265.492188 80.023438 C 265.726562 78.902344 266.742188 73.996094 266.925781 73.179688 C 266.949219 72.910156 267.105469 72.671875 267.335938 72.539062 C 267.570312 72.40625 267.851562 72.394531 268.09375 72.511719 C 270.773438 73.238281 273.542969 73.582031 276.320312 73.535156 C 277.921875 73.535156 279.625 73.449219 281.429688 73.277344 C 285.65625 73.617188 289.382812 70.53125 289.84375 66.3125 L 290.445312 63.648438 C 287.300781 65.375 283.769531 66.277344 280.183594 66.273438 C 279.667969 66.273438 279.15625 66.257812 278.636719 66.230469 C 270.910156 65.996094 267.046875 62.269531 267.046875 55.046875 C 267.070312 53.050781 267.300781 51.0625 267.734375 49.113281 L 273.753906 20.875 C 273.796875 20.46875 273.996094 20.097656 274.316406 19.847656 C 274.632812 19.59375 275.035156 19.476562 275.4375 19.527344 L 284.542969 19.527344 C 286.015625 19.527344 285.636719 20.75 285.636719 20.75 L 279.582031 49.121094 C 279.394531 50.011719 279.292969 50.921875 279.285156 51.832031 C 279.285156 54.957031 280.902344 56.519531 284.136719 56.519531 C 286.902344 56.496094 289.648438 56.003906 292.25 55.054688 L 299.546875 20.753906 C 299.660156 20.023438 300.304688 19.496094 301.042969 19.53125 C 302.148438 19.53125 309.96875 19.53125 310.742188 19.53125 C 310.96875 19.503906 311.191406 19.59375 311.339844 19.765625 C 311.484375 19.9375 311.535156 20.171875 311.476562 20.394531 L 301.691406 66.320312 C 299.34375 77.445312 291.898438 83.007812 279.363281 83.007812 C 278.476562 83.0625 277.617188 83.09375 276.789062 83.09375 C 273.167969 83.191406 269.558594 82.617188 266.144531 81.390625 C 265.875 81.304688 265.648438 81.105469 265.527344 80.847656 C 265.402344 80.589844 265.390625 80.292969 265.492188 80.023438 Z M 265.492188 80.023438 "/>
<path style="fill-rule:nonzero;fill:rgb(100%,100%,100%);fill-opacity:1;stroke-width:1;stroke-linecap:butt;stroke-linejoin:miter;stroke:rgb(9.803922%,13.72549%,17.647059%);stroke-opacity:1;stroke-miterlimit:4;" d="M 0.000421825 0.613929 L 0.789635 0.0000892857 " transform="matrix(1.747191,0,0,1.75,116.714107,65.2225)"/>
</g>
</svg>
